# xmcd CD database file
#
# Track frame offsets:
#	151
#	14538
#	29749
#	43814
#	58977
#	69886
#	81825
#	90226
#	104399
#	115828
#	129619
#	141312
#	156235
#	175136
#	189139
#	200540
#	211405
#	224672
#
# Disc length: 3201 seconds
#
# Revision: 0
# Processed by: cddbd v1.5.2PL0 Copyright (c) Steve Scherf et al.
# Submitted via: CDex 1.51
#
DISCID=0b0c7f12
DTITLE=Nat 'King' Cole - Unforgettable
DYEAR=1900
DGENRE=Blues
TTITLE0=Unforgettable
TTITLE1=All For You (Trio)
TTITLE2=A Portrait Of Jennie
TTITLE3=Embraceable You
TTITLE4=Babs
TTITLE5=Gone With The Draft
TTITLE6=Yes Sir, That's My Baby
TTITLE7=House Of Morgan
TTITLE8=Scotchin' With The Soda
TTITLE9=Come To Baby Do
TTITLE10=Black Spider Romp
TTITLE11=Hit The Ramp
TTITLE12=Trouble With Me Is You
TTITLE13=Dough-Ra-Me
TTITLE14=Too Marvellous For Words (Trio)
TTITLE15=Straighten Up and Fly Right (Trio)
TTITLE16=Blue Because Of You
TTITLE17=Red Sails In The Sunset
EXTD=
EXTT0=
EXTT1=
EXTT2=
EXTT3=
EXTT4=
EXTT5=
EXTT6=
EXTT7=
EXTT8=
EXTT9=
EXTT10=
EXTT11=
EXTT12=
EXTT13=
EXTT14=
EXTT15=
EXTT16=
EXTT17=
PLAYORDER=
